<?xml version="1.0" standalone="no"?>
<!DOCTYPE svg PUBLIC "-//W3C//DTD SVG 20010904//EN"
 "http://www.w3.org/TR/2001/REC-SVG-20010904/DTD/svg10.dtd">
<svg version="1.0" xmlns="http://www.w3.org/2000/svg"
 width="960.000000pt" height="960.000000pt" viewBox="0 0 960.000000 960.000000"
 preserveAspectRatio="xMidYMid meet">
<metadata>
Created by potrace 1.11, written by Peter Selinger 2001-2013
</metadata>
<g transform="translate(0.000000,960.000000) scale(0.100000,-0.100000)"
fill="#000000" stroke="none">
<path d="M4697 9354 c-1 -1 -60 -4 -132 -8 -254 -13 -518 -47 -740 -98 -49
-11 -94 -21 -100 -22 -5 -1 -19 -5 -30 -9 -11 -3 -31 -8 -45 -11 -14 -2 -59
-14 -100 -26 -41 -12 -79 -23 -85 -25 -5 -1 -17 -4 -25 -8 -8 -3 -64 -22 -125
-42 -254 -86 -588 -238 -805 -367 -544 -324 -989 -722 -1350 -1203 -109 -145
-220 -309 -220 -324 0 -5 -4 -11 -8 -13 -24 -10 -258 -451 -312 -588 -12 -30
-29 -72 -39 -94 -92 -204 -217 -638 -265 -916 -13 -76 -26 -161 -31 -210 -3
-30 -8 -62 -10 -70 -2 -8 -7 -58 -10 -110 -3 -52 -8 -108 -10 -125 -6 -40 -7
-534 -1 -561 2 -11 7 -68 11 -125 4 -57 9 -112 11 -123 2 -10 6 -44 10 -75 3
-31 8 -65 10 -76 2 -10 6 -37 9 -60 25 -170 99 -474 168 -685 49 -150 125
-350 138 -365 5 -5 9 -15 9 -22 0 -18 123 -268 198 -402 106 -192 280 -459
304 -469 5 -2 8 -8 8 -14 0 -13 189 -248 283 -352 159 -176 374 -379 541 -511
21 -16 46 -37 56 -45 104 -86 338 -242 563 -374 66 -39 406 -206 419 -206 8 0
18 -4 23 -9 15 -13 214 -89 365 -138 246 -81 610 -164 825 -188 28 -3 61 -8
75 -10 14 -2 66 -7 115 -10 50 -4 106 -9 125 -11 54 -7 486 -6 575 1 123 10
265 24 305 30 14 2 43 6 65 10 23 3 50 7 62 9 12 3 43 8 70 12 26 5 50 9 53 9
3 1 23 5 45 9 239 46 646 169 821 247 22 10 64 27 92 38 29 12 105 46 169 78
640 312 1187 755 1619 1310 95 121 264 366 264 381 0 6 4 12 8 14 14 5 154
255 224 398 77 158 161 360 213 515 37 110 42 126 43 135 0 3 6 19 12 35 7 17
23 73 36 125 14 52 26 102 28 110 16 58 47 211 61 290 21 126 23 137 30 190
12 91 14 114 20 194 3 44 8 101 11 126 5 55 5 513 0 555 -2 17 -7 75 -11 130
-4 55 -9 108 -11 119 -2 10 -6 44 -10 75 -3 31 -8 65 -10 76 -2 10 -6 37 -9
60 -42 294 -185 787 -306 1052 -10 24 -19 45 -19 47 0 9 -130 271 -174 353
-279 511 -704 1017 -1150 1368 -21 17 -46 37 -56 45 -104 86 -348 249 -563
374 -44 26 -311 159 -372 186 -98 43 -94 42 -295 120 -113 44 -402 130 -490
146 -14 3 -33 7 -42 10 -9 3 -25 7 -35 9 -10 2 -38 8 -63 14 -97 22 -306 55
-425 67 -33 3 -76 7 -95 9 -88 10 -505 25 -513 19z"/>
</g>
</svg>
